<?xml version="1.0" encoding="UTF-8"?>
<svg width="252mm" height="25mm" version="1.1" viewBox="0 0 252 25" xmlns="http://www.w3.org/2000/svg" xmlns:cc="http://creativecommons.org/ns#" xmlns:dc="http://purl.org/dc/elements/1.1/" xmlns:rdf="http://www.w3.org/1999/02/22-rdf-syntax-ns#">
 <defs>
  <clipPath id="clipPath853">
   <circle cx="46.302" cy="25.135" r="7.9375" d="m 54.239582,25.135416 a 7.9375,7.9375 0 0 1 -7.9375,7.9375 7.9375,7.9375 0 0 1 -7.9375,-7.9375 7.9375,7.9375 0 0 1 7.9375,-7.9375 7.9375,7.9375 0 0 1 7.9375,7.9375 z" display="none" fill="silver" fill-opacity=".99187" stroke-width=".565"/>
   <path class="powerclip" d="m32.042 10.875h28.521v28.521h-28.521zm22.198 14.26a7.9375 7.9375 0 0 0-7.9375-7.9375 7.9375 7.9375 0 0 0-7.9375 7.9375 7.9375 7.9375 0 0 0 7.9375 7.9375 7.9375 7.9375 0 0 0 7.9375-7.9375z" fill="silver" fill-opacity=".99187" stroke-width=".565"/>
  </clipPath>
  <clipPath id="clipath_lpe_path-effect906">
   <circle cx="46.302" cy="25.135" r="7.9375" d="m 54.239582,25.135416 a 7.9375,7.9375 0 0 1 -7.9375,7.9375 7.9375,7.9375 0 0 1 -7.9375,-7.9375 7.9375,7.9375 0 0 1 7.9375,-7.9375 7.9375,7.9375 0 0 1 7.9375,7.9375 z" display="none" fill="silver" fill-opacity=".99187" stroke-width=".565"/>
   <path class="powerclip" d="m32.042 10.875h28.521v28.521h-28.521zm22.198 14.26a7.9375 7.9375 0 0 0-7.9375-7.9375 7.9375 7.9375 0 0 0-7.9375 7.9375 7.9375 7.9375 0 0 0 7.9375 7.9375 7.9375 7.9375 0 0 0 7.9375-7.9375z" fill="silver" fill-opacity=".99187" stroke-width=".565"/>
  </clipPath>
  <clipPath id="clipath_lpe_path-effect930">
   <circle cx="46.302" cy="25.135" r="7.9375" d="m 54.239582,25.135416 a 7.9375,7.9375 0 0 1 -7.9375,7.9375 7.9375,7.9375 0 0 1 -7.9375,-7.9375 7.9375,7.9375 0 0 1 7.9375,-7.9375 7.9375,7.9375 0 0 1 7.9375,7.9375 z" display="none" fill="silver" fill-opacity=".99187" stroke-width=".565"/>
   <path class="powerclip" d="m32.042 10.875h28.521v28.521h-28.521zm22.198 14.26a7.9375 7.9375 0 0 0-7.9375-7.9375 7.9375 7.9375 0 0 0-7.9375 7.9375 7.9375 7.9375 0 0 0 7.9375 7.9375 7.9375 7.9375 0 0 0 7.9375-7.9375z" fill="silver" fill-opacity=".99187" stroke-width=".565"/>
  </clipPath>
  <clipPath id="clipath_lpe_path-effect954">
   <circle cx="46.302" cy="25.135" r="7.9375" d="m 54.239582,25.135416 a 7.9375,7.9375 0 0 1 -7.9375,7.9375 7.9375,7.9375 0 0 1 -7.9375,-7.9375 7.9375,7.9375 0 0 1 7.9375,-7.9375 7.9375,7.9375 0 0 1 7.9375,7.9375 z" display="none" fill="silver" fill-opacity=".99187" stroke-width=".565"/>
   <path class="powerclip" d="m32.042 10.875h28.521v28.521h-28.521zm22.198 14.26a7.9375 7.9375 0 0 0-7.9375-7.9375 7.9375 7.9375 0 0 0-7.9375 7.9375 7.9375 7.9375 0 0 0 7.9375 7.9375 7.9375 7.9375 0 0 0 7.9375-7.9375z" fill="silver" fill-opacity=".99187" stroke-width=".565"/>
  </clipPath>
 </defs>
 <metadata>
  <rdf:RDF>
   <cc:Work rdf:about="">
    <dc:format>image/svg+xml</dc:format>
    <dc:type rdf:resource="http://purl.org/dc/dcmitype/StillImage"/>
    <dc:title/>
   </cc:Work>
  </rdf:RDF>
 </metadata>
 <g fill-opacity=".99187" stroke-width=".565">
  <path transform="matrix(1.0686 0 0 1.0686 -38.261 -15.642)" d="m55.562 25.135a9.2604 9.2604 0 0 1-9.2604 9.2604 9.2604 9.2604 0 0 1-9.2604-9.2604 9.2604 9.2604 0 0 1 9.2604-9.2604 9.2604 9.2604 0 0 1 9.2604 9.2604z" clip-path="url(#clipPath853)" fill="silver"/>
  <rect x="19.844" y="10.583" width="59.531" height="1.3229" fill="silver"/>
  <circle cx="11.245" cy="11.245" r="7.276" fill="var(--circle1)"/>
  <path transform="matrix(1.0686 0 0 1.0686 38.468 -15.642)" d="m55.562 25.135a9.2604 9.2604 0 0 1-9.2604 9.2604 9.2604 9.2604 0 0 1-9.2604-9.2604 9.2604 9.2604 0 0 1 9.2604-9.2604 9.2604 9.2604 0 0 1 9.2604 9.2604z" clip-path="url(#clipath_lpe_path-effect906)" fill="silver"/>
  <rect x="96.573" y="10.583" width="59.531" height="1.3229" fill="silver"/>
  <circle cx="87.974" cy="11.245" r="7.276" fill="var(--circle2)"/>
  <path transform="matrix(1.0686 0 0 1.0686 115.2 -15.642)" d="m55.562 25.135a9.2604 9.2604 0 0 1-9.2604 9.2604 9.2604 9.2604 0 0 1-9.2604-9.2604 9.2604 9.2604 0 0 1 9.2604-9.2604 9.2604 9.2604 0 0 1 9.2604 9.2604z" clip-path="url(#clipath_lpe_path-effect930)" fill="silver"/>
  <rect x="173.3" y="10.583" width="59.531" height="1.3229" fill="silver"/>
  <circle cx="164.7" cy="11.245" r="7.276" fill="var(--circle3)"/>
  <path transform="matrix(1.0686 0 0 1.0686 191.93 -15.642)" d="m55.562 25.135a9.2604 9.2604 0 0 1-9.2604 9.2604 9.2604 9.2604 0 0 1-9.2604-9.2604 9.2604 9.2604 0 0 1 9.2604-9.2604 9.2604 9.2604 0 0 1 9.2604 9.2604z" clip-path="url(#clipath_lpe_path-effect954)" fill="silver"/>
  <circle cx="241.43" cy="11.245" r="7.276" fill="var(--circle4)"/>
 </g>
</svg>
