<svg width="217" height="80" viewBox="0 0 217 80" fill="none" xmlns="http://www.w3.org/2000/svg" class="none">
    <g clip-path="url(#clip0)">
        <path fill-rule="evenodd" clip-rule="evenodd" d="M109.263 0L44.6072 64.6558H162.88L163.561 64.4735L172.374 40.8071L115.932 55.9311L141.117 41.3903L143.505 16.2493L92.8996 45.4659L113.463 24.9026L109.263 0Z" fill="url(#paint0_linear)" />
        <path fill-rule="evenodd" clip-rule="evenodd" d="M191.825 60.8971C189.788 60.8971 188.137 62.5506 188.137 64.5882V68.2766V73.0858C188.137 76.814 191.088 79.8514 194.781 79.9932V79.9998H195.051H197.38V75.1331V74.6257V70.0442V68.9699V66.0896L201.86 70.5691L207.74 76.4487V79.9998H210.07H210.339V79.9932C214.032 79.8513 216.984 76.8139 216.983 73.0858V68.2766V64.5878V64.5823C216.983 62.5448 215.332 60.8929 213.295 60.8913H213.29H211.883H211.845H207.74V68.9669V70.0415V71.2508L204.458 67.9687L197.927 61.4374C197.498 61.0366 196.847 60.8913 196.149 60.8913H193.234L191.825 60.8971ZM3.68822 60.8971C1.65085 60.8971 0 62.5507 0 64.5882V68.2766V69.7586H5.0979H9.24354V70.0447V72.0803V73.5364V74.6261V75.7207V76.3263V79.4601V80H19.603V79.4601V76.3263V75.7207V74.6261V73.5364V72.0803V70.0447V69.7586H23.7488H28.8471V68.2766V64.5882C28.8471 62.5506 27.196 60.8987 25.1586 60.8971H25.1531H23.7464H23.709H16.4134H12.428H5.09483H3.68849H3.68822ZM40.8603 60.8971C38.8228 60.8971 37.1719 62.5506 37.1718 64.5882V68.2766V73.0858C37.1718 76.814 40.1228 79.8514 43.8163 79.9932V79.9998H44.0854H59.1047H59.3738V79.9932C63.0671 79.8513 66.0185 76.8137 66.0183 73.0856V68.2763V64.5878C66.0183 62.5503 64.3674 60.8985 62.3298 60.8968H60.9232H60.8858H53.5902H49.6047H42.2719H40.8653L40.8603 60.8971ZM78.0315 60.8971C75.9945 60.8971 74.3439 62.5509 74.3439 64.5882V68.2766V73.0858C74.3439 76.814 77.2949 79.8514 80.9884 79.9932V79.9998H81.2576H96.2768H96.546V79.9932C100.239 79.8513 103.191 76.8137 103.19 73.0856V68.2763V64.5878C103.19 62.5503 101.539 60.8985 99.5019 60.8968H99.4965H98.0898H98.0524H93.9435V65.1394V68.9764V70.047V74.2635C93.9435 75.7917 92.8883 76.3286 91.6192 76.3286H85.7903C84.5856 76.3286 83.5841 75.8189 83.5841 74.3681V70.047V68.9764V65.1394V60.8968H79.4379H78.0321L78.0315 60.8971ZM117.479 60.8971C115.442 60.8971 113.791 62.5506 113.791 64.5882V67.4119L107.407 63.7265L107.708 66.8976L109.425 67.8884L111.216 68.9226L107.602 67.9544L108.713 70.9391L110.627 71.452L112.624 71.9873H108.884L110.73 74.5826H112.712H113.955C114.639 77.6813 117.4 80 120.704 80H138.489L138.75 73.9856L134.618 75.5981L134.202 73.7256L128.481 76.3263H127.231C124.94 76.3263 123.034 75.3569 123.034 72.5974V69.9611C129.585 69.9611 139.585 69.6951 141.517 71.6255C142.676 70.6911 142.637 67.5962 142.637 65.9919C142.637 63.1767 140.355 60.8945 137.54 60.8945H137.503H126.221H117.482L117.479 60.8971ZM154.651 60.8971C152.614 60.8971 150.963 62.5506 150.963 64.5882V68.2766V73.0858C150.963 76.814 153.914 79.8514 157.607 79.9932V79.9998H157.876H160.206V78.3596V76.6896H170.566V78.3596V79.9998H172.895H173.165V79.9932C176.858 79.8513 179.809 76.8137 179.809 73.0856V68.2763V64.5878C179.809 62.5503 178.159 60.8985 176.121 60.8968H174.715H174.677H167.382H163.396H156.063H154.657L154.651 60.8971ZM48.6221 69.7611H49.1589H54.0318H54.4508C55.7198 69.7611 56.775 70.298 56.775 71.8263V74.2637C56.775 75.792 55.7198 76.3289 54.4508 76.3289H48.6221C47.4175 76.3289 46.4156 75.8191 46.4156 74.3684V73.539V72.0829V71.7216C46.4156 70.2709 47.4175 69.7611 48.6221 69.7611ZM162.413 69.7611H162.95H167.823H168.242C169.511 69.7611 170.566 70.298 170.566 71.8263V73.0187H160.206V71.7213C160.206 70.2706 161.208 69.7611 162.413 69.7611Z" fill="var(--svg-color)" />
    </g>
    <defs>
        <linearGradient id="paint0_linear" x1="91.3225" y1="11.4046" x2="91.3225" y2="60.8361" gradientUnits="userSpaceOnUse">
            <stop stop-color="var(--svg-color)" />
            <stop offset="1" stop-color="var(--svg-color)" stop-opacity="0" />
        </linearGradient>
        <clipPath id="clip0">
            <rect width="216.983" height="80" fill="white" />
        </clipPath>
    </defs>
</svg>